<svg width="53" height="46" viewBox="0 0 53 46" fill="none" xmlns="http://www.w3.org/2000/svg">
<path d="M27.5658 45.4372C51.6657 24.5667 51.631 24.5592 51.631 24.5592C52.3074 23.9755 52.3074 23.0252 51.631 22.449L50.3996 21.3864C49.7231 20.8027 48.6218 20.8027 47.9454 21.3864L30.3409 36.5697C29.7945 37.0411 28.8579 36.7044 28.8579 36.0384V2.37163C28.8579 1.54848 28.0774 0.875 27.1235 0.875H25.3891C24.4351 0.875 23.6547 1.54848 23.6547 2.37163V36.0534C23.6547 36.7194 22.7181 37.0561 22.1717 36.5847L4.57592 21.3864C3.89949 20.8027 2.79812 20.8027 2.1217 21.3864L0.898923 22.4415C0.222495 23.0252 0.222495 23.9755 0.898923 24.5592L25.1202 45.4372C25.788 46.0209 26.898 46.0209 27.5658 45.4372Z" fill="white"/>
</svg>
