<svg width="49" height="51" viewBox="0 0 49 51" fill="none" xmlns="http://www.w3.org/2000/svg">
<path fill-rule="evenodd" clip-rule="evenodd" d="M21.4531 44.5481H6.55775V6.47115H21.4531C23.0916 6.47115 24.4322 5.04327 24.4322 3.29808C24.4322 1.55288 23.0916 0.125 21.4531 0.125H3.57868C1.94019 0.125 0.599609 1.55288 0.599609 3.29808V47.7212C0.599609 49.4663 1.94019 50.8942 3.57868 50.8942H21.4531C23.0916 50.8942 24.4322 49.4663 24.4322 47.7212C24.4322 45.976 23.0916 44.5481 21.4531 44.5481ZM47.4008 23.2567L38.4636 13.7375C37.9026 13.14 37.1418 12.8043 36.3485 12.8043C35.5551 12.8043 34.7943 13.14 34.2333 13.7375C33.6724 14.335 33.3572 15.1454 33.3572 15.9904C33.3572 16.8354 33.6724 17.6458 34.2333 18.2433L38.1061 22.3365H18.474C16.8356 22.3365 15.495 23.7644 15.495 25.5096C15.495 27.2548 16.8356 28.6827 18.474 28.6827H38.1061L34.2631 32.776C33.6971 33.3471 33.3694 34.1404 33.3694 35.0288C33.3703 35.6571 33.5456 36.271 33.8735 36.7932C34.2013 37.3154 34.6669 37.7227 35.2116 37.9636C35.7563 38.2045 36.3558 38.2683 36.9345 38.1469C37.5132 38.0256 38.0453 37.7246 38.4636 37.2817L47.4008 27.7625C47.9371 27.1913 48.2648 26.3981 48.2648 25.5096C48.2648 24.6212 47.9371 23.8279 47.4008 23.2567Z" fill="white"/>
</svg>
