<svg width="48" height="46" viewBox="0 0 48 46" fill="none" xmlns="http://www.w3.org/2000/svg">
<path fill-rule="evenodd" clip-rule="evenodd" d="M17.8129 0.125H3.16901C1.55818 0.125 0.240234 1.39062 0.240234 2.9375V17C0.240234 18.5469 1.55818 19.8125 3.16901 19.8125H17.8129C19.4237 19.8125 20.7417 18.5469 20.7417 17V2.9375C20.7417 1.39062 19.4237 0.125 17.8129 0.125ZM32.4568 39.5C32.4568 37.9531 31.1389 36.6875 29.528 36.6875C27.9172 36.6875 26.5992 37.9531 26.5992 39.5V42.3125C26.5992 43.8594 27.9172 45.125 29.528 45.125H32.4568C34.0676 45.125 35.3856 43.8594 35.3856 42.3125C35.3856 40.7656 34.0676 39.5 32.4568 39.5ZM17.8129 25.4375H3.16901C1.55818 25.4375 0.240234 26.7031 0.240234 28.25V42.3125C0.240234 43.8594 1.55818 45.125 3.16901 45.125H17.8129C19.4237 45.125 20.7417 43.8594 20.7417 42.3125V28.25C20.7417 26.7031 19.4237 25.4375 17.8129 25.4375ZM44.1719 36.6875C42.5611 36.6875 41.2431 37.9531 41.2431 39.5C39.6323 39.5 38.3144 40.7656 38.3144 42.3125C38.3144 43.8594 39.6323 45.125 41.2431 45.125H44.1719C45.7827 45.125 47.1007 43.8594 47.1007 42.3125V39.5C47.1007 37.9531 45.7827 36.6875 44.1719 36.6875ZM32.4568 25.4375H29.528C27.9172 25.4375 26.5992 26.7031 26.5992 28.25V31.0625C26.5992 32.6094 27.9172 33.875 29.528 33.875C31.1389 33.875 32.4568 32.6094 32.4568 31.0625C34.0676 31.0625 35.3856 29.7969 35.3856 28.25C35.3856 26.7031 34.0676 25.4375 32.4568 25.4375ZM44.1719 0.125H29.528C27.9172 0.125 26.5992 1.39062 26.5992 2.9375V17C26.5992 18.5469 27.9172 19.8125 29.528 19.8125H44.1719C45.7827 19.8125 47.1007 18.5469 47.1007 17V2.9375C47.1007 1.39062 45.7827 0.125 44.1719 0.125ZM44.1719 25.4375H41.2431C39.6323 25.4375 38.3144 26.7031 38.3144 28.25C38.3144 29.7969 39.6323 31.0625 41.2431 31.0625C41.2431 32.6094 42.5611 33.875 44.1719 33.875C45.7827 33.875 47.1007 32.6094 47.1007 31.0625V28.25C47.1007 26.7031 45.7827 25.4375 44.1719 25.4375Z" fill="white"/>
</svg>
