<svg width="61" height="54" viewBox="0 0 61 54" fill="none" xmlns="http://www.w3.org/2000/svg">
<path fill-rule="evenodd" clip-rule="evenodd" d="M4.25 8.25H56.75C58.8125 8.25 60.5 6.5625 60.5 4.5C60.5 2.4375 58.8125 0.75 56.75 0.75H4.25C2.1875 0.75 0.5 2.4375 0.5 4.5C0.5 6.5625 2.1875 8.25 4.25 8.25ZM56.75 45.75H4.25C2.1875 45.75 0.5 47.4375 0.5 49.5C0.5 51.5625 2.1875 53.25 4.25 53.25H56.75C58.8125 53.25 60.5 51.5625 60.5 49.5C60.5 47.4375 58.8125 45.75 56.75 45.75ZM56.75 30.75H4.25C2.1875 30.75 0.5 32.4375 0.5 34.5C0.5 36.5625 2.1875 38.25 4.25 38.25H56.75C58.8125 38.25 60.5 36.5625 60.5 34.5C60.5 32.4375 58.8125 30.75 56.75 30.75ZM56.75 15.75H4.25C2.1875 15.75 0.5 17.4375 0.5 19.5C0.5 21.5625 2.1875 23.25 4.25 23.25H56.75C58.8125 23.25 60.5 21.5625 60.5 19.5C60.5 17.4375 58.8125 15.75 56.75 15.75Z" fill="white"/>
</svg>
