<svg width="50" height="45" viewBox="0 0 50 45" fill="none" xmlns="http://www.w3.org/2000/svg">
<path d="M28.8426 0L28.8892 0.00723701L28.9358 0.0144741L28.9824 0.0217111L29.0213 0.0361853L29.0601 0.0506594L29.0989 0.0651334L29.1378 0.0796075L29.1766 0.101319L29.2155 0.12303L29.2543 0.144741L29.2854 0.173689L29.3164 0.202637L29.3475 0.231586L29.3786 0.260534L29.4097 0.296719L29.4407 0.332904L29.4718 0.36909L29.5029 0.405275L29.534 0.44146L29.565 0.484883L29.5883 0.528305L29.6116 0.571727L29.6349 0.615149L29.6583 0.658572L29.6816 0.701994L29.7049 0.752653L29.7282 0.803313L29.7515 0.853972L29.7748 0.904632L29.7981 0.955291L29.8214 1.00595L29.8447 1.05661L29.868 1.10727L29.8913 1.16517L29.9146 1.22306L29.9379 1.28096L29.9612 1.33885L29.9845 1.39675L31.0255 5.05146L31.3518 5.14554L32.0742 5.38437L32.7889 5.65214L33.488 5.94162L34.1717 6.25281L34.226 6.28176L37.7451 4.38565L37.7995 4.35671L37.8539 4.32776L37.9082 4.29881L37.9626 4.26986L38.017 4.24091L38.0714 4.2192L38.1257 4.19749L38.1801 4.17578L38.2345 4.15407L38.2889 4.13236L38.3433 4.11065L38.3976 4.08893L38.452 4.07446L38.5064 4.05999L38.5608 4.04551L38.6152 4.03104L38.6695 4.01656L38.7161 4.00209L38.7627 3.98762L38.8094 3.98038L38.856 3.97314L38.9026 3.96591L38.9492 3.95867H38.9958H39.0424H39.089H39.1356L39.1822 3.96591L39.2289 3.97314L39.2677 3.98038L39.3065 3.98762L39.3454 4.00209L39.3842 4.01656L39.4231 4.03104L39.4619 4.05275L39.5007 4.07446L39.5396 4.09617L39.5784 4.12512L39.6173 4.15407L39.6561 4.18302L44.7832 8.95947L44.8143 8.99566L44.8454 9.03184L44.8764 9.06803L44.8997 9.10421L44.923 9.1404L44.9463 9.17658L44.9619 9.21277L44.9774 9.24895L44.993 9.28514L45.0085 9.32856L45.0163 9.37198L45.024 9.41541L45.0318 9.45883V9.50225V9.54567V9.5891V9.63252L45.024 9.67594L45.0163 9.71936L45.0085 9.76278L45.0007 9.80621L44.993 9.84963L44.9774 9.90029L44.9619 9.95095L44.9463 10.0016L44.9308 10.0523L44.9153 10.1029L44.892 10.1536L44.8687 10.2042L44.8454 10.2549L44.8221 10.3056L44.7987 10.3562L44.7754 10.4069L44.7444 10.4575L44.7133 10.5082L44.6822 10.5589L44.6512 10.6095L44.6201 10.6602L44.589 10.7108L44.5579 10.7615L42.5226 14.0399L42.5615 14.1123L42.8955 14.7491L43.2062 15.4004L43.4937 16.0663L43.75 16.7393L43.851 17.0433L47.774 18.013L47.8362 18.0275L47.8983 18.042L47.9605 18.0564L48.0226 18.0709L48.0848 18.0854L48.1391 18.0999L48.1935 18.1143L48.2479 18.1288L48.3023 18.1433L48.3566 18.165L48.411 18.1867L48.4654 18.2084L48.5198 18.2301L48.5664 18.2518L48.613 18.2736L48.6596 18.2953L48.7062 18.317L48.7528 18.3387L48.7994 18.3676L48.8383 18.3966L48.8771 18.4255L48.916 18.4545L48.9548 18.4834L48.9937 18.5124L49.0247 18.5413L49.0558 18.5703L49.0869 18.6065L49.118 18.6426L49.1413 18.6788L49.1646 18.715L49.1879 18.7512L49.2034 18.7874L49.2189 18.8236L49.2345 18.8598L49.25 18.9032L49.2578 18.9466L49.2655 18.99L49.2733 19.0334V19.0769V19.1203V25.8725V25.9159V25.9593L49.2655 26.0027L49.2578 26.0462L49.25 26.0896L49.2345 26.1258L49.2189 26.1619L49.2034 26.1981L49.1879 26.2343L49.1646 26.2705L49.1413 26.3067L49.118 26.3429L49.0869 26.3718L49.0558 26.4008L49.0247 26.4297L48.9937 26.4587L48.9548 26.4876L48.916 26.5166L48.8771 26.5455L48.8383 26.5745L48.7994 26.6034L48.7528 26.6324L48.7062 26.6541L48.6596 26.6758L48.613 26.6975L48.5664 26.7192L48.5198 26.7409L48.4654 26.7626L48.411 26.7843L48.3566 26.806L48.3023 26.8278L48.2479 26.8495L48.1935 26.8712L48.1391 26.8929L48.0848 26.9146L48.0226 26.9363L47.9605 26.958L47.8983 26.9797L47.8362 27.0014L47.774 27.0232L43.851 27.9929L43.75 28.2969L43.4937 28.9699L43.2062 29.6357L42.8955 30.2871L42.5615 30.9239L42.5226 30.9673L44.5579 34.2385L44.589 34.2892L44.6201 34.3398L44.6512 34.3905L44.6822 34.4411L44.7133 34.4918L44.7444 34.5425L44.7754 34.5931L44.7987 34.6438L44.8221 34.6944L44.8454 34.7451L44.8687 34.7957L44.892 34.8464L44.9153 34.8971L44.9308 34.9477L44.9463 34.9984L44.9619 35.049L44.9774 35.0997L44.993 35.1504L45.0007 35.201L45.0085 35.2444L45.0163 35.2879L45.024 35.3313L45.0318 35.3747V35.4181V35.4616V35.505V35.5484L45.024 35.5918L45.0163 35.6352L45.0085 35.6787L44.993 35.7221L44.9774 35.7583L44.9619 35.7945L44.9308 35.8162L44.9075 35.8524L44.8842 35.8885L44.8609 35.9247L44.8298 35.9609L44.7987 35.9971L44.7677 36.0333L39.6406 40.8097L39.6017 40.8387L39.5629 40.8676L39.524 40.8966L39.4852 40.9183L39.4464 40.94L39.4153 40.9545L39.3764 40.969L39.3376 40.9834L39.2988 40.9979L39.2599 41.0051L39.2211 41.0124L39.1745 41.0196L39.1279 41.0269H39.0813H39.0346H38.988H38.9414L38.8948 41.0196L38.8482 41.0124L38.8016 41.0051L38.755 40.9979L38.7084 40.9834L38.6618 40.969L38.6074 40.9545L38.553 40.94L38.4986 40.9255L38.4442 40.9111L38.3899 40.8893L38.3355 40.8676L38.2811 40.8459L38.2267 40.8242L38.1724 40.8097L38.118 40.788L38.0636 40.7663L38.0092 40.7446L37.9548 40.7157L37.9005 40.6867L37.8461 40.6578L37.7917 40.6288L37.7373 40.5999L34.2105 38.711L34.1406 38.7472L33.457 39.0584L32.7578 39.3479L32.0431 39.6156L31.3207 39.8545L30.9944 39.9485L29.9535 43.6032L29.9301 43.6611L29.9068 43.719L29.8835 43.7769L29.8602 43.8348L29.8369 43.8927L29.8136 43.9434L29.7903 43.994L29.767 44.0447L29.7437 44.0954L29.7204 44.146L29.6971 44.1967L29.6738 44.2473L29.6505 44.298L29.6272 44.3414L29.6039 44.3848L29.5806 44.4283L29.5573 44.4717L29.534 44.5151L29.5029 44.5585L29.4718 44.5947L29.4407 44.6309L29.4097 44.6671L29.3786 44.7033L29.3475 44.7395L29.3164 44.7684L29.2854 44.7974L29.2543 44.8263L29.2232 44.8553L29.1844 44.877L29.1455 44.8987L29.1067 44.9204L29.0679 44.9349L29.029 44.9493L28.9902 44.9638L28.9513 44.9783L28.9047 44.9855L28.8581 44.9928L28.8115 45H28.7649H28.7183H21.4704H21.4238H21.3772L21.3306 44.9928L21.284 44.9855L21.2374 44.9783L21.1908 44.9638L21.1519 44.9493L21.1131 44.9349L21.0742 44.9204L21.0354 44.8987L20.9966 44.877L20.9577 44.8553L20.9189 44.8263L20.88 44.7974L20.849 44.7684L20.8179 44.7395L20.7868 44.7033L20.7557 44.6671L20.7247 44.6309L20.6936 44.5947L20.6625 44.5585L20.6314 44.5151L20.6081 44.4717L20.5848 44.4283L20.5615 44.3848L20.5382 44.3414L20.5149 44.298L20.4916 44.2473L20.4683 44.1967L20.445 44.146L20.4217 44.0954L20.4062 44.0447L20.3906 43.994L20.3751 43.9434L20.3596 43.8927L20.344 43.8348L20.3285 43.7769L20.3129 43.719L20.2974 43.6611L20.2819 43.6032L19.2409 39.9485L18.9146 39.8545L18.1922 39.6156L17.4775 39.3479L16.7783 39.0584L16.0947 38.7472L16.0093 38.7038L12.5135 40.5926L12.4591 40.6216L12.4048 40.6505L12.3504 40.6795L12.296 40.7084L12.2416 40.7374L12.1873 40.7663L12.1329 40.7953L12.0785 40.817L12.0241 40.8387L11.9697 40.8604L11.9154 40.8821L11.861 40.9038L11.8066 40.9255L11.7522 40.94L11.6978 40.9545L11.6435 40.969L11.5891 40.9834L11.5347 40.9979L11.4803 41.0051L11.4337 41.0124L11.3871 41.0196L11.3405 41.0269L11.2939 41.0341H11.2473H11.2007H11.1541L11.1075 41.0269L11.0608 41.0196L11.0142 41.0124L10.9676 41.0051L10.921 40.9907L10.8822 40.9762L10.8433 40.9617L10.8045 40.9472L10.7656 40.9255L10.7268 40.9038L10.688 40.8821L10.6491 40.8532L10.6103 40.8242L10.5714 40.7953L5.44433 36.0188L5.41326 35.9826L5.38219 35.9464L5.35112 35.9103L5.32781 35.8741L5.30451 35.8379L5.2812 35.8017L5.26566 35.7655L5.25013 35.7293L5.23459 35.6931L5.22682 35.657L5.21905 35.6208L5.21128 35.5774L5.23459 35.5267V35.4833V35.4398V35.3964V35.353L5.24236 35.3096L5.25013 35.2662L5.2579 35.2227L5.26566 35.1793L5.2812 35.1359L5.29674 35.0925L5.31227 35.0418L5.32781 34.9912L5.34335 34.9405L5.35888 34.8898L5.38219 34.8392L5.40549 34.7885L5.4288 34.7379L5.4521 34.6872L5.47541 34.6365L5.49871 34.5859L5.52202 34.5352L5.54532 34.4846L5.5764 34.4339L5.60747 34.3832L5.63854 34.3326L5.66962 34.2819L5.70069 34.2313L7.72046 30.9601L7.68939 30.9022L7.35535 30.2654L7.04461 29.614L6.75718 28.9482L6.50083 28.2752L6.39984 27.9712L2.47683 27.0014L2.41468 26.9797L2.35254 26.958L2.29039 26.9363L2.22824 26.9146L2.1661 26.8929L2.11172 26.8712L2.05734 26.8495L2.00296 26.8278L1.94858 26.806L1.8942 26.7843L1.83982 26.7626L1.78545 26.7409L1.73107 26.7192L1.68446 26.6975L1.63785 26.6758L1.59124 26.6541L1.54463 26.6324L1.49802 26.6106L1.45141 26.5817L1.41257 26.5527L1.37372 26.5238L1.33488 26.4949L1.29604 26.4659L1.2572 26.437L1.22613 26.408L1.19505 26.3791L1.16398 26.3501L1.13291 26.3212L1.1096 26.285L1.0863 26.2488L1.06299 26.2126L1.04745 26.1764L1.03192 26.1402L1.01638 26.104L1.00084 26.0679L0.993076 26.0244L0.985307 25.981L0.977539 25.9376V25.8942V25.8508V19.0986V19.0552V19.0117L0.985307 18.9683L0.993076 18.9249L1.00084 18.8815L1.01638 18.838L1.03192 18.8019L1.04745 18.7657L1.06299 18.7295L1.0863 18.6933L1.1096 18.6571L1.13291 18.6209L1.16398 18.5848L1.19505 18.5486L1.22613 18.5196L1.2572 18.4907L1.29604 18.4617L1.33488 18.4328L1.37372 18.4038L1.41257 18.3749L1.45141 18.3459L1.49802 18.317L1.54463 18.2953L1.59124 18.2736L1.63785 18.2518L1.68446 18.2301L1.73107 18.2084L1.78545 18.1867L1.83982 18.165L1.8942 18.1433L1.94858 18.1216L2.00296 18.1071L2.05734 18.0926L2.11172 18.0782L2.1661 18.0637L2.22824 18.0492L2.29039 18.0347L2.35254 18.0203L2.41468 18.0058L2.47683 17.9913L6.39984 17.0215L6.50083 16.7176L6.75718 16.0445L7.04461 15.3787L7.35535 14.7274L7.68939 14.0905L7.72046 14.0326L5.68515 10.7615L5.65408 10.7108L5.62301 10.6602L5.59193 10.6095L5.56086 10.5589L5.52979 10.5082L5.50648 10.4575L5.48318 10.4069L5.46764 10.3417L5.44433 10.2911L5.42103 10.2404L5.39773 10.1898L5.37442 10.1391L5.35112 10.0885L5.33558 10.0378L5.32004 9.98713L5.30451 9.93647L5.28897 9.88581L5.27343 9.84239L5.2579 9.79897L5.25013 9.75555L5.24236 9.71212L5.23459 9.6687L5.22682 9.62528V9.58186V9.53843V9.49501V9.45159L5.23459 9.40817L5.24236 9.36475L5.25013 9.32856L5.2579 9.29238L5.27343 9.25619L5.28897 9.22001L5.31227 9.18382L5.33558 9.14763L5.35888 9.11145L5.38219 9.07526L5.41326 9.03908L5.44433 9.00289L5.47541 8.96671L10.6025 4.19025L10.6414 4.16131L10.6802 4.13236L10.719 4.10341L10.7579 4.0817L10.7967 4.05999L10.8278 4.04551L10.8666 4.03104L10.9055 4.01656L10.9443 4.00209L10.9909 3.98762L11.0375 3.98038L11.0842 3.97314L11.1308 3.96591H11.1774H11.224H11.2706H11.3172L11.3638 3.97314L11.4104 3.98038L11.457 3.98762L11.5036 3.99485L11.558 4.00209L11.6124 4.01656L11.6668 4.03104L11.7212 4.04551L11.7755 4.05999L11.8299 4.07446L11.8843 4.09617L11.9387 4.11788L11.993 4.13959L12.0474 4.16131L12.1018 4.18302L12.1562 4.20473L12.2106 4.23368L12.2649 4.26262L12.3193 4.29157L12.3737 4.32052L12.4281 4.34947L12.4825 4.37842L12.5368 4.40737L16.0326 6.289L16.1025 6.25281L16.7861 5.94162L17.4853 5.65214L18.2 5.38437L18.9224 5.14554L19.2487 5.05146L20.2896 1.39675L20.3052 1.33885L20.3207 1.28096L20.3362 1.22306L20.3518 1.16517L20.3673 1.10727L20.3829 1.05661L20.3984 1.00595L20.4139 0.955291L20.4295 0.904632L20.4528 0.853972L20.4761 0.803313L20.4994 0.752653L20.5227 0.701994L20.546 0.658572L20.5693 0.615149L20.5926 0.571727L20.6159 0.528305L20.6392 0.484883L20.6703 0.44146L20.7014 0.405275L20.7324 0.36909L20.7635 0.332904L20.7946 0.296719L20.8257 0.260534L20.8567 0.231586L20.8878 0.202637L20.9266 0.173689L20.9655 0.144741L21.0043 0.12303L21.0432 0.101319L21.082 0.0796075L21.1208 0.0651334L21.1597 0.0506594L21.1985 0.0361853L21.2451 0.0217111L21.2918 0.0144741L21.3384 0.00723701L21.385 0H21.4316H21.4782H28.7261H28.7727H28.8426ZM24.2515 12.6866L23.8242 12.7227L23.4047 12.7806L22.993 12.853L22.5813 12.9398L22.1773 13.0412L21.7812 13.157L21.3927 13.2872L21.0121 13.432L20.6392 13.5912L20.2741 13.7576L19.9168 13.9386L19.5672 14.134L19.2254 14.3438L18.8913 14.561L18.5651 14.7925L18.2543 15.0314L17.9514 15.2847L17.6562 15.5452L17.3765 15.8202L17.1046 16.1024L16.8483 16.3919L16.5997 16.6959L16.3666 17.0071L16.1413 17.3255L15.9316 17.6512L15.7374 17.9841L15.5587 18.3242L15.3878 18.6716L15.2324 19.0262L15.0926 19.3881L14.9683 19.7572L14.8596 20.1335L14.7663 20.517L14.6887 20.9006L14.6265 21.2914L14.5877 21.6894L14.5644 22.0875L14.5566 22.4928L14.5644 22.898L14.5877 23.2961L14.6265 23.6941L14.6887 24.0849L14.7663 24.4685L14.8596 24.852L14.9683 25.2284L15.0926 25.5975L15.2324 25.9593L15.3878 26.3139L15.5587 26.6613L15.7374 27.0014L15.9316 27.3343L16.1413 27.66L16.3666 27.9784L16.5997 28.2896L16.8483 28.5936L17.1046 28.8831L17.3765 29.1653L17.6562 29.4403L17.9514 29.7009L18.2543 29.9542L18.5651 30.193L18.8913 30.4246L19.2254 30.6417L19.5672 30.8516L19.9168 31.047L20.2741 31.2279L20.6392 31.3943L21.0121 31.5536L21.3927 31.6983L21.7812 31.8286L22.1773 31.9444L22.5813 32.0457L22.993 32.1325L23.4047 32.2049L23.8242 32.2628L24.2515 32.299L24.6787 32.3207L25.1138 32.3279L25.5488 32.3207L25.9761 32.299L26.4033 32.2628L26.8228 32.2049L27.2345 32.1325L27.6463 32.0457L28.0502 31.9444L28.4464 31.8286L28.8348 31.6983L29.2155 31.5536L29.5883 31.3943L29.9535 31.2279L30.3108 31.047L30.6604 30.8516L31.0022 30.6417L31.3362 30.4246L31.6625 30.193L31.9732 29.9542L32.2762 29.7009L32.5714 29.4403L32.851 29.1653L33.1229 28.8831L33.3793 28.5936L33.6279 28.2896L33.8609 27.9784L34.0862 27.66L34.296 27.3343L34.4902 27.0014L34.6688 26.6613L34.8397 26.3139L34.9951 25.9593L35.1349 25.5975L35.2592 25.2284L35.368 24.852L35.4612 24.4685L35.5389 24.0849L35.601 23.6941L35.6399 23.2961L35.6632 22.898L35.6709 22.4928L35.6632 22.0875L35.6399 21.6894L35.601 21.2914L35.5389 20.9006L35.4612 20.517L35.368 20.1335L35.2592 19.7572L35.1349 19.3881L34.9951 19.0262L34.8397 18.6716L34.6688 18.3242L34.4902 17.9841L34.296 17.6512L34.0862 17.3255L33.8609 17.0071L33.6279 16.6959L33.3793 16.3919L33.1229 16.1024L32.851 15.8202L32.5714 15.5452L32.2762 15.2847L31.9732 15.0314L31.6625 14.7925L31.3362 14.561L31.0022 14.3438L30.6604 14.134L30.3108 13.9386L29.9535 13.7576L29.5883 13.5912L29.2155 13.432L28.8348 13.2872L28.4464 13.157L28.0502 13.0412L27.6463 12.9398L27.2345 12.853L26.8228 12.7806L26.4033 12.7227L25.9761 12.6866L25.5488 12.6648L25.1138 12.6576L24.6787 12.6648L24.2515 12.6866Z" fill="white"/>
</svg>
