<svg width="50" height="37" viewBox="0 0 50 37" fill="none" xmlns="http://www.w3.org/2000/svg">
<path fill-rule="evenodd" clip-rule="evenodd" d="M43.3538 25.375H24.3205L23.3203 22.5625H40.323C41.505 22.5625 42.5052 21.9156 43.0204 20.9875H43.0507L49.1123 9.7375H49.082C49.2639 9.37188 49.4154 8.95 49.4154 8.5C49.4154 6.95312 48.0515 5.6875 46.3846 5.6875H17.2588L15.9252 1.975H15.8949C15.4706 0.878125 14.3795 0.0625 13.046 0.0625H3.95364C2.2867 0.0625 0.922852 1.32812 0.922852 2.875C0.922852 4.42188 2.2867 5.6875 3.95364 5.6875H10.8638L17.9255 25.375H13.046C9.71212 25.375 6.98442 27.9062 6.98442 31C6.98442 34.0938 9.71212 36.625 13.046 36.625C16.3798 36.625 19.1076 34.0938 19.1076 31H37.2923C37.2923 34.0938 40.02 36.625 43.3538 36.625C46.6877 36.625 49.4154 34.0938 49.4154 31C49.4154 27.9062 46.6877 25.375 43.3538 25.375ZM19.2591 11.3125H41.4747L38.444 16.9375H21.2897L19.2591 11.3125Z" fill="white"/>
</svg>
