<svg width="45" height="45" viewBox="0 0 45 45" fill="none" xmlns="http://www.w3.org/2000/svg">
<path fill-rule="evenodd" clip-rule="evenodd" d="M41.7656 17.8313C39.8813 7.65 31.9781 0 22.5 0C13.0219 0 5.11875 7.65 3.23437 17.8313C1.32187 19.4063 0 22.7813 0 26.7188C0 32.1469 2.53125 36.5625 5.625 36.5625C5.625 39.6563 8.15625 42.1875 11.25 42.1875H16.875C16.875 43.7344 18.1406 45 19.6875 45H25.3125C26.8594 45 28.125 43.7344 28.125 42.1875V39.375C28.125 37.8281 26.8594 36.5625 25.3125 36.5625H19.6875C18.1406 36.5625 16.875 37.8281 16.875 39.375H11.25C9.70312 39.375 8.4375 38.1094 8.4375 36.5625C9.98438 36.5625 11.25 35.2969 11.25 33.75V19.6875C11.25 18.4219 10.4062 17.4094 9.25312 17.0437C11.1656 10.4063 16.3406 5.625 22.5 5.625C28.6594 5.625 33.8344 10.4063 35.7469 17.0437C34.5938 17.4094 33.75 18.4219 33.75 19.6875V33.75C33.75 35.2969 35.0156 36.5625 36.5625 36.5625H39.375C42.4688 36.5625 45 32.1469 45 26.7188C45 22.7813 43.6781 19.4063 41.7656 17.8313Z" fill="white"/>
</svg>
